<?xml version="1.0" encoding="UTF-8"?>
<svg width="40px" height="40px" viewBox="0 0 40 40" version="1.1" xmlns="http://www.w3.org/2000/svg" xmlns:xlink="http://www.w3.org/1999/xlink">
    <!-- Generator: Sketch 56.2 (81672) - https://sketch.com -->
    <title>Call icon</title>
    <desc>Created with Sketch.</desc>
    <g id="Page-1" stroke="none" stroke-width="1" fill="none" fill-rule="evenodd">
        <g id="CBW_Homepage-screen" transform="translate(-793.000000, -3914.000000)">
            <g id="Footer" transform="translate(0.000000, 3840.000000)">
                <g id="Call-icon" transform="translate(794.000000, 75.000000)">
                    <g>
                        <circle id="Oval" stroke="#F8921F" fill="#F8921F" cx="19" cy="19" r="19"></circle>
                        <g id="telephone" transform="translate(9.000000, 10.000000)" fill="#FFFFFF" fill-rule="nonzero">
                            <path d="M15.1914345,13.2182952 C14.5386279,12.5738046 13.723659,12.5738046 13.0750104,13.2182952 C12.5802079,13.7089397 12.0854054,14.1995842 11.5989189,14.6985447 C11.4658628,14.8357588 11.3535967,14.8648649 11.1914345,14.7733888 C10.8712682,14.5987526 10.5303119,14.4573805 10.2226195,14.2661123 C8.78810811,13.3638254 7.58644491,12.2037422 6.52199584,10.8981289 C5.99392931,10.2494802 5.52407484,9.55509356 5.19559252,8.77338877 C5.12906445,8.61538462 5.14153846,8.51143451 5.27043659,8.38253638 C5.76523909,7.9043659 6.24756757,7.41372141 6.73405405,6.92307692 C7.41180873,6.24116424 7.41180873,5.44282744 6.72989605,4.75675676 C6.34320166,4.36590437 5.95650728,3.98336798 5.56981289,3.59251559 C5.17064449,3.19334719 4.7756341,2.79002079 4.37230769,2.3950104 C3.71950104,1.75883576 2.90453222,1.75883576 2.25588358,2.3991684 C1.75692308,2.88981289 1.2787526,3.39293139 0.771476091,3.87525988 C0.301621622,4.32016632 0.0646153846,4.86486486 0.0147193347,5.5010395 C-0.0642827443,6.53638254 0.189355509,7.51351351 0.546943867,8.46569647 C1.2787526,10.4365904 2.39309771,12.1871102 3.74444906,13.7920998 C5.56981289,15.962578 7.74860707,17.6798337 10.2974636,18.9189189 C11.4450728,19.4760915 12.634262,19.9043659 13.9274012,19.975052 C14.8172141,20.024948 15.5906029,19.8004158 16.2101455,19.1060291 C16.634262,18.6320166 17.1124324,18.1995842 17.5614969,17.7463617 C18.2267775,17.0727651 18.2309356,16.2577963 17.5698129,15.5925156 C16.7797921,14.7983368 15.9856133,14.008316 15.1914345,13.2182952 Z" id="Path"></path>
                            <path d="M14.3972557,9.9043659 L15.9315593,9.64241164 C15.690395,8.23284823 15.0251143,6.95634096 14.0147193,5.94178794 C12.9461123,4.87318087 11.5947609,4.1995842 10.1061954,3.99168399 L9.88997921,5.53430353 C11.0417464,5.6964657 12.0895634,6.21621622 12.9170062,7.04365904 C13.698711,7.82536383 14.2101455,8.81496881 14.3972557,9.9043659 Z" id="Path"></path>
                            <path d="M16.7964241,3.23492723 C15.0251143,1.46361746 12.7839501,0.345114345 10.3099376,0 L10.0937214,1.54261954 C12.2309356,1.84199584 14.1685655,2.81081081 15.698711,4.33679834 C17.1498545,5.78794179 18.1020374,7.62162162 18.4471518,9.63825364 L19.9814553,9.37629938 C19.5781289,7.03950104 18.4762578,4.91891892 16.7964241,3.23492723 Z" id="Path"></path>
                        </g>
                    </g>
                </g>
            </g>
        </g>
    </g>
</svg>