<?xml version="1.0" encoding="UTF-8"?>
<svg width="40px" height="40px" viewBox="0 0 40 40" version="1.1" xmlns="http://www.w3.org/2000/svg" xmlns:xlink="http://www.w3.org/1999/xlink">
    <!-- Generator: Sketch 56.2 (81672) - https://sketch.com -->
    <title>LinkedIn</title>
    <desc>Created with Sketch.</desc>
    <g id="Page-1" stroke="none" stroke-width="1" fill="none" fill-rule="evenodd">
        <g id="CBW_Homepage-screen" transform="translate(-1133.000000, -3734.000000)">
            <g id="Second-Last-Footer" transform="translate(0.000000, 3640.000000)">
                <g id="Group-10" transform="translate(1028.000000, 56.000000)">
                    <g id="Follow-us" transform="translate(0.000000, 39.000000)">
                        <g id="LinkedIn" transform="translate(106.000000, 0.000000)">
                            <circle id="Oval" stroke="#F8921F" fill="#F8921F" cx="19" cy="19" r="19"></circle>
                            <g id="linkedin-letters" transform="translate(9.000000, 7.000000)" fill="#FFFFFF" fill-rule="nonzero">
                                <rect id="Rectangle" x="0.258285714" y="6.51880952" width="4.48647619" height="13.4729524"></rect>
                                <path d="M19.4686667,7.74947619 C18.5262381,6.72071429 17.2797619,6.2062381 15.73,6.2062381 C15.159,6.2062381 14.6399524,6.27647619 14.1730952,6.41704762 C13.706381,6.55752381 13.3121905,6.75461905 12.9903333,7.00842857 C12.6686667,7.2622381 12.4124762,7.49785714 12.2222857,7.71528571 C12.0414286,7.92180952 11.8645714,8.16238095 11.692,8.43452381 L11.692,6.51871429 L7.21890476,6.51871429 L7.23261905,7.17138095 C7.24180952,7.60657143 7.24633333,8.94790476 7.24633333,11.1955714 C7.24633333,13.4434286 7.23728571,16.3754286 7.21909524,19.9918571 L11.692,19.9918571 L11.692,12.4734286 C11.692,12.0112857 11.7415714,11.6442857 11.8414762,11.3721429 C12.0319524,10.9096667 12.3194286,10.5224762 12.7048571,10.2099048 C13.0902381,9.89695238 13.5681905,9.74061905 14.139381,9.74061905 C14.918619,9.74061905 15.4920952,10.0102381 15.8592381,10.5495238 C16.2262381,11.0887619 16.4097619,11.8342857 16.4097619,12.786 L16.4097619,19.9914286 L20.8826667,19.9914286 L20.8826667,12.2697143 C20.8823333,10.2845714 20.411381,8.77790476 19.4686667,7.74947619 Z" id="Path"></path>
                                <path d="M2.52871429,0.0337142857 C1.77652381,0.0337142857 1.16704762,0.253666667 0.700142857,0.693142857 C0.233285714,1.13271429 0,1.68766667 0,2.35852381 C0,3.02 0.226571429,3.57304762 0.679761905,4.01704762 C1.13280952,4.46109524 1.73109524,4.6832381 2.47428571,4.6832381 L2.50147619,4.6832381 C3.26290476,4.6832381 3.87704762,4.46128571 4.3437619,4.01704762 C4.81047619,3.57304762 5.03928571,3.02019048 5.03028571,2.35852381 C5.0212381,1.68771429 4.78995238,1.13271429 4.33690476,0.693142857 C3.88390476,0.25347619 3.28095238,0.0337142857 2.52871429,0.0337142857 Z" id="Path"></path>
                            </g>
                        </g>
                    </g>
                </g>
            </g>
        </g>
    </g>
</svg>