<?xml version="1.0" encoding="UTF-8"?>
<svg width="20px" height="20px" viewBox="0 0 20 20" version="1.1" xmlns="http://www.w3.org/2000/svg" xmlns:xlink="http://www.w3.org/1999/xlink">
    <!-- Generator: Sketch 56.2 (81672) - https://sketch.com -->
    <title>share</title>
    <desc>Created with Sketch.</desc>
    <g id="Page-1" stroke="none" stroke-width="1" fill="none" fill-rule="evenodd">
        <g id="CBW_Homepage-screen" transform="translate(-555.000000, -2815.000000)" fill="#F8921F" fill-rule="nonzero">
            <g id="Recommended-News" transform="translate(93.000000, 1680.000000)">
                <g id="Card-8" transform="translate(400.000000, 820.000000)">
                    <g id="Share" transform="translate(62.000000, 315.000000)">
                        <g id="share">
                            <path d="M16.1819831,12.7094515 C15.0242616,12.7094515 14.0030802,13.2610127 13.3359072,14.105654 L7.14772152,10.9410127 C7.22873418,10.6388608 7.28696203,10.3266667 7.28696203,9.99810127 C7.28696203,9.64042194 7.21780591,9.30367089 7.12130802,8.97599156 L13.2821941,5.82594937 C13.9456962,6.70881857 14.9932911,7.28586498 16.1828692,7.28586498 C18.1979747,7.28586498 19.8280591,5.65578059 19.8280591,3.64248945 C19.8280591,1.63101266 18.1979747,0 16.1829114,0 C14.1723629,0 12.5404641,1.63101266 12.5404641,3.64244726 C12.5404641,3.97194093 12.5987342,4.2850211 12.6806329,4.58810127 L6.49333333,7.75274262 C5.82527426,6.90721519 4.80223629,6.35383966 3.64270042,6.35383966 C1.62940928,6.35383966 0.000253164557,7.9857384 0.000253164557,9.99810127 C0.000253164557,12.0104641 1.62945148,13.6414768 3.64270042,13.6414768 C4.83409283,13.6414768 5.88080169,13.062616 6.54700422,12.1788608 L12.7051477,15.328903 C12.6086498,15.655654 12.5386076,15.9951477 12.5386076,16.3537553 C12.5386076,18.3661181 14.1705063,19.9971308 16.1810549,19.9971308 C18.1961603,19.9971308 19.8262447,18.3661181 19.8262447,16.3537553 C19.827173,14.3395781 18.1970886,12.7094515 16.1819831,12.7094515 Z" id="Path"></path>
                        </g>
                    </g>
                </g>
            </g>
        </g>
    </g>
</svg>