<?xml version="1.0" encoding="UTF-8"?>
<svg width="19px" height="20px" viewBox="0 0 19 20" version="1.1" xmlns="http://www.w3.org/2000/svg" xmlns:xlink="http://www.w3.org/1999/xlink">
    <!-- Generator: Sketch 56.2 (81672) - https://sketch.com -->
    <title>thumbs-up</title>
    <desc>Created with Sketch.</desc>
    <g id="Page-1" stroke="none" stroke-width="1" fill="none" fill-rule="evenodd">
        <g id="CBW_Homepage-screen" transform="translate(-741.000000, -2815.000000)" fill="#F8921F" fill-rule="nonzero">
            <g id="Recommended-News" transform="translate(93.000000, 1680.000000)">
                <g id="Card-8" transform="translate(400.000000, 820.000000)">
                    <g id="Like" transform="translate(248.000000, 315.000000)">
                        <g id="thumbs-up">
                            <path d="M17.849958,11.1568067 C18.2418908,10.5648319 18.437605,9.91319328 18.437605,9.20142857 C18.437605,8.37760504 18.1340336,7.66205882 17.5263866,7.05365546 C16.9184454,6.44588235 16.1986134,6.14205882 15.3669748,6.14205882 L13.2555882,6.14205882 C13.6393697,5.35037815 13.8315966,4.58252101 13.8315966,3.83886555 C13.8315966,2.90310924 13.6912605,2.15941176 13.4115966,1.60756303 C13.1316387,1.05554622 12.7236975,0.649789916 12.1878151,0.389747899 C11.6518067,0.129831933 11.0481933,0 10.3764286,0 C9.96836134,0 9.60861345,0.147941176 9.29672269,0.44394958 C8.95289916,0.779789916 8.70495798,1.21176471 8.55306723,1.73962185 C8.40109244,2.26731092 8.27907563,2.77323529 8.18718487,3.25710084 C8.09529412,3.74092437 7.95319328,4.08281513 7.76134454,4.28273109 C7.36936975,4.70659664 6.94155462,5.21857143 6.47768908,5.81831933 C5.66995798,6.86588235 5.12205882,7.4857563 4.83428571,7.67777311 L1.54739496,7.67777311 C1.12352941,7.67777311 0.761596639,7.82794118 0.461680672,8.12760504 C0.161890756,8.42756303 0.0118907563,8.78945378 0.0118907563,9.21336134 L0.0118907563,16.8907983 C0.0118907563,17.3147059 0.161722689,17.6764706 0.461680672,17.9764286 C0.761764706,18.2763866 1.12352941,18.4264706 1.54739496,18.4264706 L5.00205882,18.4264706 C5.17802521,18.4264706 5.7297479,18.5863866 6.65747899,18.9063025 C7.64121849,19.2502521 8.50693277,19.5121008 9.25462185,19.6921008 C10.002395,19.8721008 10.7601681,19.9621429 11.5279832,19.9621429 L12.6433193,19.9621429 L13.0754202,19.9621429 C14.2029832,19.9621429 15.1106303,19.640042 15.7984874,18.9961765 C16.4860924,18.3523109 16.8261345,17.4746218 16.8182353,16.3629832 C17.2980672,15.7471429 17.5379412,15.0353782 17.5379412,14.2277311 C17.5379412,14.0518908 17.5261345,13.879958 17.5020168,13.7118487 C17.8057983,13.1762185 17.9580672,12.6003782 17.9580672,11.9845378 C17.9579412,11.6965966 17.9220168,11.4205462 17.849958,11.1568067 Z M2.855,16.6630252 C2.70306723,16.8148739 2.52315126,16.8910924 2.31521008,16.8910924 C2.10722689,16.8910924 1.92726891,16.814916 1.77529412,16.6630252 C1.62340336,16.5112185 1.54739496,16.3312185 1.54739496,16.1231092 C1.54739496,15.9152101 1.62323529,15.7353361 1.77529412,15.5833193 C1.92743697,15.4313445 2.10722689,15.3553782 2.31521008,15.3553782 C2.52315126,15.3553782 2.70306723,15.4313445 2.855,15.5833193 C3.00697479,15.7352941 3.08298319,15.9151681 3.08298319,16.1231092 C3.08298319,16.3312185 3.00697479,16.5112185 2.855,16.6630252 Z M16.6447479,10.1856723 C16.4727731,10.5534874 16.2587815,10.7414286 16.0028992,10.7493277 C16.1228151,10.8853361 16.2228571,11.0754622 16.3028571,11.3191597 C16.3827731,11.5631513 16.422479,11.785 16.422479,11.985042 C16.422479,12.5365966 16.2108403,13.012563 15.7869328,13.4123109 C15.9310504,13.6681092 16.0029412,13.9441597 16.0029412,14.239916 C16.0029412,14.5358403 15.9330672,14.8297479 15.7930252,15.1215966 C15.6532353,15.4131933 15.4631513,15.6231933 15.2233193,15.7510924 C15.2632773,15.9909664 15.2831092,16.214958 15.2831092,16.4228571 C15.2831092,17.7583613 14.5152941,18.4261345 12.9796218,18.4261345 L11.5285294,18.4261345 C10.4806303,18.4261345 9.11327731,18.1344118 7.42567227,17.5504622 C7.38563025,17.5344958 7.26983193,17.4923529 7.07777311,17.4244958 C6.88571429,17.3566387 6.74382353,17.3065966 6.65180672,17.2747059 C6.55978992,17.242479 6.41995798,17.1965126 6.23189076,17.1366807 C6.04386555,17.0765546 5.89210084,17.032521 5.77605042,17.0046639 C5.66016807,16.9767647 5.52810924,16.9507563 5.38029412,16.9267227 C5.23239496,16.9027311 5.10638655,16.8907983 5.00243697,16.8907983 L4.61857143,16.8907983 L4.61857143,9.21365546 L5.00243697,9.21365546 C5.13037815,9.21365546 5.27231092,9.17756303 5.42827731,9.1057563 C5.58420168,9.0337395 5.7442437,8.92579832 5.90815126,8.78180672 C6.07214286,8.63781513 6.22596639,8.49588235 6.37,8.35584034 C6.5139916,8.21592437 6.67390756,8.04 6.84991597,7.82815126 C7.02584034,7.61613445 7.16378151,7.4462605 7.26382353,7.31827731 C7.3637395,7.19033613 7.48966387,7.02630252 7.64163866,6.82638655 C7.79352941,6.62651261 7.88558824,6.50651261 7.91756303,6.46647059 C8.35735294,5.92273109 8.6652521,5.55886555 8.84117647,5.37483193 C9.16907563,5.03105042 9.40697479,4.59319328 9.55491597,4.06134454 C9.70302521,3.52941176 9.82495798,3.02756303 9.92058824,2.55579832 C10.0164706,2.0839916 10.1686134,1.7439916 10.3768067,1.53605042 C11.1443697,1.53605042 11.6563445,1.72390756 11.9121849,2.09983193 C12.1679832,2.47567227 12.2959664,3.05554622 12.2959664,3.83928571 C12.2959664,4.31109244 12.1038655,4.95285714 11.719916,5.76453782 C11.3361345,6.57630252 11.1443697,7.21411765 11.1443697,7.67794118 L15.3668487,7.67794118 C15.7671429,7.67794118 16.1228571,7.83180672 16.4346218,8.13987395 C16.7466387,8.44773109 16.9028151,8.80554622 16.9028151,9.21352941 C16.9026891,9.49340336 16.8166807,9.81735294 16.6447479,10.1856723 Z" id="Shape"></path>
                        </g>
                    </g>
                </g>
            </g>
        </g>
    </g>
</svg>