<?xml version="1.0" encoding="UTF-8"?>
<svg width="47px" height="52px" viewBox="0 0 47 52" version="1.1" xmlns="http://www.w3.org/2000/svg" xmlns:xlink="http://www.w3.org/1999/xlink">
    <!-- Generator: Sketch 56.2 (81672) - https://sketch.com -->
    <title>Call</title>
    <desc>Created with Sketch.</desc>
    <defs>
        <path d="M22,0 L41,0 L41,40 L22,40 L12,40 C5.372583,40 8.11624501e-16,34.627417 0,28 L0,12 C-8.11624501e-16,5.372583 5.372583,1.21743675e-15 12,0 L22,0 Z" id="path-1"></path>
        <filter x="-24.4%" y="-20.0%" width="148.8%" height="150.0%" filterUnits="objectBoundingBox" id="filter-2">
            <feOffset dx="0" dy="2" in="SourceAlpha" result="shadowOffsetOuter1"></feOffset>
            <feGaussianBlur stdDeviation="3" in="shadowOffsetOuter1" result="shadowBlurOuter1"></feGaussianBlur>
            <feComposite in="shadowBlurOuter1" in2="SourceAlpha" operator="out" result="shadowBlurOuter1"></feComposite>
            <feColorMatrix values="0 0 0 0 0   0 0 0 0 0   0 0 0 0 0  0 0 0 0.2 0" type="matrix" in="shadowBlurOuter1"></feColorMatrix>
        </filter>
    </defs>
    <g id="Page-1" stroke="none" stroke-width="1" fill="none" fill-rule="evenodd">
        <g id="CBW_Homepage-screen" transform="translate(-1319.000000, -459.000000)">
            <g id="Call" transform="translate(1325.000000, 463.000000)">
                <g id="Combined-Shape">
                    <use fill="black" fill-opacity="1" filter="url(#filter-2)" xlink:href="#path-1"></use>
                    <path stroke="#F8921F" stroke-width="1" d="M40.5,39.5 L40.5,0.5 L12,0.5 C5.64872538,0.5 0.5,5.64872538 0.5,12 L0.5,28 C0.5,34.3512746 5.64872538,39.5 12,39.5 L40.5,39.5 Z" stroke-linejoin="square" fill="#F8921F" fill-rule="evenodd"></path>
                </g>
                <g id="telephone" transform="translate(11.428571, 10.793651)" fill="#FFFFFF" fill-rule="nonzero">
                    <path d="M15.4325684,13.4281094 C14.7693997,12.7733888 13.9414949,12.7733888 13.2825502,13.4281094 C12.7798937,13.9265419 12.2772372,14.4249744 11.7830287,14.9318549 C11.6478606,15.0712471 11.5338125,15.1008151 11.3690763,15.007887 C11.043828,14.8304788 10.6974597,14.6868627 10.3848833,14.4925585 C8.92760189,13.5759496 7.70686467,12.3974524 6.62551959,11.0711151 C6.08907105,10.4121704 5.61175857,9.70676171 5.27806224,8.91264891 C5.21047817,8.75213675 5.22315018,8.64653665 5.35409431,8.51559252 C5.85675082,8.02983203 6.34673531,7.53139953 6.8409438,7.03296703 C7.52945649,6.34023034 7.52945649,5.52922153 6.8367198,4.83226083 C6.4438874,4.43520444 6.05105501,4.04659605 5.65822262,3.64953965 C5.25271821,3.24403524 4.85143781,2.83430683 4.4417094,2.43302643 C3.77854074,1.78675379 2.95063591,1.78675379 2.29169125,2.43725044 C1.78481074,2.93568294 1.29905026,3.44678745 0.783721744,3.93677194 C0.306409266,4.38874039 0.0656410256,4.94208494 0.014952975,5.58835759 C-0.0653031053,6.64013464 0.192361152,7.63277563 0.555625516,8.6000726 C1.29905026,10.6022506 2.43108339,12.3805564 3.80388476,14.011022 C5.65822262,16.2159522 7.87160083,17.960466 10.4609154,19.2192192 C11.6267406,19.7852358 12.8348058,20.2203082 14.1484711,20.2921163 C15.052408,20.3428043 15.8380728,20.1147081 16.4674494,19.4092994 C16.8982979,18.9277629 17.3840583,18.4884665 17.8402508,18.02805 C18.5160915,17.3437613 18.5203155,16.5158565 17.8486988,15.8400158 C17.046138,15.033231 16.2393532,14.2306702 15.4325684,13.4281094 Z" id="Path"></path>
                    <path d="M14.6257836,10.0615781 L16.1844411,9.7954658 C15.9394489,8.36352836 15.2636082,7.06675907 14.2371752,6.03610204 C13.1516061,4.95053295 11.7788047,4.26624427 10.2666112,4.05504406 L10.046963,5.62214962 C11.2170122,5.78688579 12.2814612,6.31488631 13.1220381,7.15546316 C13.9161509,7.94957595 14.4357034,8.95488895 14.6257836,10.0615781 Z" id="Path"></path>
                    <path d="M17.063034,3.28627529 C15.2636082,1.48684949 12.9868699,0.350592351 10.4735874,0 L10.2539392,1.56710557 C12.4250774,1.87123387 14.3934634,2.85542686 15.9478969,4.40563641 C17.4220744,5.87981388 18.3893713,7.74259974 18.7399637,9.79124179 L20.2986213,9.52512953 C19.8888928,7.15123915 18.7695317,4.996997 17.063034,3.28627529 Z" id="Path"></path>
                </g>
            </g>
        </g>
    </g>
</svg>