<?xml version="1.0" encoding="UTF-8"?>
<svg width="40px" height="40px" viewBox="0 0 40 40" version="1.1" xmlns="http://www.w3.org/2000/svg" xmlns:xlink="http://www.w3.org/1999/xlink">
    <!-- Generator: Sketch 56.2 (81672) - https://sketch.com -->
    <title>facebook</title>
    <desc>Created with Sketch.</desc>
    <g id="Page-1" stroke="none" stroke-width="1" fill="none" fill-rule="evenodd">
        <g id="CBW_Homepage-screen" transform="translate(-1027.000000, -3734.000000)">
            <g id="Second-Last-Footer" transform="translate(0.000000, 3640.000000)">
                <g id="Group-10" transform="translate(1028.000000, 56.000000)">
                    <g id="Follow-us" transform="translate(0.000000, 39.000000)">
                        <g id="facebook">
                            <circle id="Oval" stroke="#F8921F" fill="#F8921F" cx="19" cy="19" r="19"></circle>
                            <g id="facebook-letter-logo" transform="translate(14.000000, 9.000000)" fill="#FFFFFF" fill-rule="nonzero">
                                <path d="M8.63254113,0 L6.55016453,0 C4.95696527,0 3.81261426,0.378171846 3.11714808,1.1342596 C2.42146252,1.89060329 2.07393053,3.00449726 2.07393053,4.47641682 L2.07393053,5.87945155 C2.07393053,6.25023766 1.77341865,6.55074954 1.40263254,6.55074954 L0.682998172,6.55074954 C0.312212066,6.55074954 0.0117001828,6.85126143 0.0117001828,7.22204753 L0.0117001828,9.32453382 C0.0117001828,9.69531993 0.312212066,9.99583181 0.682998172,9.99583181 L1.40263254,9.99583181 C1.77341865,9.99583181 2.07393053,10.2963437 2.07393053,10.6671298 L2.07393053,19.3203656 C2.07393053,19.6911517 2.37444241,19.9916636 2.74522852,19.9916636 L5.53915905,19.9916636 C5.90994516,19.9916636 6.21045704,19.6911152 6.21045704,19.3203656 L6.21045704,10.6671664 C6.21045704,10.2963437 6.51100548,9.99586837 6.88175503,9.99586837 L8.29279707,9.99586837 C8.66361974,9.99586837 8.99568556,9.6969287 9.03462523,9.32837294 L9.25747715,7.21824497 C9.29641682,6.8495064 9.02745887,6.55074954 8.6566362,6.55074954 L6.88153565,6.55074954 C6.51074954,6.55074954 6.21023766,6.25023766 6.21023766,5.87945155 L6.21023766,4.82819013 C6.21023766,4.5695064 6.22234004,4.36925046 6.24669104,4.22760512 C6.27085923,4.08617916 6.3254479,3.94676417 6.4104936,3.80914077 C6.49528336,3.67177331 6.63290676,3.57667276 6.82288848,3.5240585 C7.01283364,3.4714808 7.26570384,3.44508227 7.5809872,3.44508227 L8.63224863,3.44508227 C9.00303473,3.44508227 9.30351027,3.14457038 9.30351027,2.77378428 L9.30351027,0.671297989 C9.30380256,0.300511883 9.00329068,0 8.63254113,0 Z" id="Path"></path>
                            </g>
                        </g>
                    </g>
                </g>
            </g>
        </g>
    </g>
</svg>