<?xml version="1.0" encoding="UTF-8"?>
<svg width="40px" height="40px" viewBox="0 0 40 40" version="1.1" xmlns="http://www.w3.org/2000/svg" xmlns:xlink="http://www.w3.org/1999/xlink">
    <!-- Generator: Sketch 56.2 (81672) - https://sketch.com -->
    <title>Pinterest</title>
    <desc>Created with Sketch.</desc>
    <g id="Page-1" stroke="none" stroke-width="1" fill="none" fill-rule="evenodd">
        <g id="CBW_Homepage-screen" transform="translate(-1133.000000, -3784.000000)">
            <g id="Second-Last-Footer" transform="translate(0.000000, 3640.000000)">
                <g id="Group-10" transform="translate(1028.000000, 56.000000)">
                    <g id="Follow-us" transform="translate(0.000000, 39.000000)">
                        <g id="Pinterest" transform="translate(106.000000, 50.000000)">
                            <circle id="Oval" stroke="#F8921F" fill="#F8921F" cx="19" cy="19" r="19"></circle>
                            <g id="pinterest-social-logo" transform="translate(10.000000, 8.000000)" fill="#FFFFFF" fill-rule="nonzero">
                                <path d="M9.00765306,0 C3.02365306,0 0.00651020408,4.29 0.00651020408,7.86769388 C0.00651020408,10.0337959 0.826571429,11.9605918 2.58522449,12.6789592 C2.87391837,12.7968163 3.13253061,12.6832245 3.2164898,12.364 C3.27440816,12.1428776 3.41202041,11.5854694 3.47330612,11.3531224 C3.55771429,11.0372653 3.52471429,10.9265918 3.29214286,10.6513673 C2.78502041,10.053102 2.46085714,9.27861224 2.46085714,8.18153061 C2.46085714,4.99871429 4.8422449,2.1494898 8.66216327,2.1494898 C12.0438776,2.1494898 13.9022041,4.21614286 13.9022041,6.97602041 C13.9022041,10.6073673 12.2950816,13.672102 9.90942857,13.672102 C8.59167347,13.672102 7.60571429,12.5824286 7.92179592,11.2460408 C8.30028571,9.65059184 9.0332449,7.92853061 9.0332449,6.77712245 C9.0332449,5.74626531 8.48032653,4.8862449 7.33497959,4.8862449 C5.98804082,4.8862449 4.90622449,6.27965306 4.90622449,8.14606122 C4.90622449,9.33495918 5.30783673,10.1390816 5.30783673,10.1390816 C5.30783673,10.1390816 3.9292449,15.9791837 3.68814286,17.0019592 C3.20661224,19.0385306 3.61585714,21.5355306 3.65042857,21.7876327 C3.67040816,21.9371429 3.86234694,21.9726122 3.94944898,21.8599184 C4.07404082,21.6976122 5.67802041,19.7173878 6.22330612,17.7385102 C6.37753061,17.1781837 7.10869388,14.2768776 7.10869388,14.2768776 C7.54644898,15.1113061 8.82536735,15.8465102 10.185551,15.8465102 C14.234,15.8465102 16.9810816,12.1556735 16.9810816,7.21487755 C16.9813061,3.47914286 13.8166735,0 9.00765306,0 Z" id="Path"></path>
                            </g>
                        </g>
                    </g>
                </g>
            </g>
        </g>
    </g>
</svg>