<?xml version="1.0" encoding="UTF-8"?>
<svg width="40px" height="40px" viewBox="0 0 40 40" version="1.1" xmlns="http://www.w3.org/2000/svg" xmlns:xlink="http://www.w3.org/1999/xlink">
    <!-- Generator: Sketch 56.2 (81672) - https://sketch.com -->
    <title>Twitter</title>
    <desc>Created with Sketch.</desc>
    <g id="Page-1" stroke="none" stroke-width="1" fill="none" fill-rule="evenodd">
        <g id="CBW_Homepage-screen" transform="translate(-1080.000000, -3734.000000)">
            <g id="Second-Last-Footer" transform="translate(0.000000, 3640.000000)">
                <g id="Group-10" transform="translate(1028.000000, 56.000000)">
                    <g id="Follow-us" transform="translate(0.000000, 39.000000)">
                        <g id="Twitter" transform="translate(53.000000, 0.000000)">
                            <circle id="Oval" stroke="#F8921F" fill="#F8921F" cx="19" cy="19" r="19"></circle>
                            <g id="twitter-black-shape-(1)" transform="translate(8.000000, 10.000000)" fill="#FFFFFF" fill-rule="nonzero">
                                <path d="M20.5580649,2.55962338 C20.4536104,2.59012987 20.3491948,2.61853247 20.2447792,2.64498701 C19.6064416,2.80616883 19.5477662,2.59348052 20.0099221,2.12423377 C20.2168831,1.91396104 20.3997662,1.68525974 20.5585714,1.43824675 C20.9145584,0.884337662 20.6057922,0.642779221 20.0001429,0.901519481 C19.7841039,0.993818182 19.5644805,1.07750649 19.3418182,1.15211688 C18.7177792,1.36168831 17.8322338,1.04555844 17.2761818,0.692883117 C16.5741818,0.247714286 15.7763766,0.0252467532 14.8824935,0.0252467532 C13.6304026,0.0252467532 12.5631818,0.466831169 11.6802078,1.3492987 C10.7975065,2.23223377 10.3559221,3.29976623 10.3559221,4.55154545 C10.3559221,4.72274026 10.3657013,4.89654545 10.385026,5.07276623 C10.4167403,5.3595974 9.93366234,5.56753247 9.28176623,5.47546753 C7.87161039,5.27637662 6.53181818,4.84909091 5.26211688,4.19407792 C4.0028961,3.54455844 2.89153247,2.72719481 1.92822078,1.74194805 C1.46774026,1.27106494 0.844948052,1.31162338 0.673012987,1.94727273 C0.57,2.32831169 0.518766234,2.72458442 0.518766234,3.13616883 C0.518766234,3.91180519 0.700909091,4.63118182 1.06527273,5.2942987 C1.24648052,5.6242987 1.4587013,5.92305195 1.7024026,6.19036364 C2.11231169,6.64032468 2.04958442,6.9014026 1.479,6.74142857 C0.908649351,6.58145455 0.490675325,6.34394805 0.490675325,6.35945455 C0.490675325,6.37496104 0.490675325,6.38758442 0.490675325,6.38758442 C0.490675325,7.48036364 0.833805195,8.44055844 1.52049351,9.26723377 C1.94349351,9.77653247 2.43490909,10.169961 2.99454545,10.4470519 C3.58468831,10.7393766 3.8595974,10.9024286 3.5295974,10.9451299 C3.33050649,10.9708831 3.13020779,10.9837403 2.92874026,10.9837403 C2.79237662,10.9837403 2.64931169,10.9775455 2.50005195,10.9649221 C2.26398701,10.9448961 2.22155844,11.4367792 2.57945455,11.9895195 C2.86390909,12.4287273 3.228,12.8152208 3.67153247,13.1490779 C4.12266234,13.4888571 4.60885714,13.7327532 5.12933766,13.8813117 C5.76264935,14.0618182 5.88974026,14.3906494 5.32507792,14.7292208 C3.92781818,15.5676234 2.38153247,15.9867662 0.686454545,15.9867662 C0.495467532,15.9867662 0.313285714,15.9824805 0.139246753,15.9741429 C-0.162857143,15.9596104 0.0398181818,16.2256753 0.623025974,16.5311299 C2.44542857,17.4856364 4.419,17.9624805 6.54401299,17.9624805 C8.15064935,17.9624805 9.65949351,17.7081039 11.0703506,17.199 C12.4807013,16.6899351 13.686039,16.0077273 14.6855844,15.1529221 C15.6851299,14.2981169 16.5471039,13.315013 17.2712338,12.2031429 C17.9951688,11.0913117 18.5345065,9.93054545 18.8897922,8.72096104 C19.2445714,7.5111039 19.4222338,6.29887013 19.4222338,5.08425974 C19.4222338,4.97481818 19.4212987,4.87655844 19.4196234,4.79002597 C19.4162727,4.6274026 19.8464416,4.18722078 20.3266364,3.73683117 C20.5433766,3.53345455 20.7501039,3.32002597 20.9475584,3.09615584 C21.3831039,2.60181818 21.1902078,2.3752987 20.5580649,2.55962338 Z" id="Path"></path>
                            </g>
                        </g>
                    </g>
                </g>
            </g>
        </g>
    </g>
</svg>